FILE "Angelique - Voice Fantasy (1996)(Koei)(JP)(Track 01 of 90).bin" BINARY
  TRACK 01 AUDIO
    INDEX 01 00:00:00
FILE "Angelique - Voice Fantasy (1996)(Koei)(JP)(Track 02 of 90).bin" BINARY
  TRACK 02 AUDIO
    INDEX 00 00:00:00
    INDEX 01 00:02:00
FILE "Angelique - Voice Fantasy (1996)(Koei)(JP)(Track 03 of 90).bin" BINARY
  TRACK 03 AUDIO
    INDEX 00 00:00:00
    INDEX 01 00:02:00
FILE "Angelique - Voice Fantasy (1996)(Koei)(JP)(Track 04 of 90).bin" BINARY
  TRACK 04 AUDIO
    INDEX 00 00:00:00
    INDEX 01 00:02:00
FILE "Angelique - Voice Fantasy (1996)(Koei)(JP)(Track 05 of 90).bin" BINARY
  TRACK 05 AUDIO
    INDEX 00 00:00:00
    INDEX 01 00:02:00
FILE "Angelique - Voice Fantasy (1996)(Koei)(JP)(Track 06 of 90).bin" BINARY
  TRACK 06 AUDIO
    INDEX 00 00:00:00
    INDEX 01 00:02:00
FILE "Angelique - Voice Fantasy (1996)(Koei)(JP)(Track 07 of 90).bin" BINARY
  TRACK 07 AUDIO
    INDEX 00 00:00:00
    INDEX 01 00:02:00
FILE "Angelique - Voice Fantasy (1996)(Koei)(JP)(Track 08 of 90).bin" BINARY
  TRACK 08 AUDIO
    INDEX 00 00:00:00
    INDEX 01 00:02:00
FILE "Angelique - Voice Fantasy (1996)(Koei)(JP)(Track 09 of 90).bin" BINARY
  TRACK 09 AUDIO
    INDEX 00 00:00:00
    INDEX 01 00:02:00
FILE "Angelique - Voice Fantasy (1996)(Koei)(JP)(Track 10 of 90).bin" BINARY
  TRACK 10 AUDIO
    INDEX 00 00:00:00
    INDEX 01 00:02:00
FILE "Angelique - Voice Fantasy (1996)(Koei)(JP)(Track 11 of 90).bin" BINARY
  TRACK 11 AUDIO
    INDEX 00 00:00:00
    INDEX 01 00:02:00
FILE "Angelique - Voice Fantasy (1996)(Koei)(JP)(Track 12 of 90).bin" BINARY
  TRACK 12 AUDIO
    INDEX 00 00:00:00
    INDEX 01 00:02:00
FILE "Angelique - Voice Fantasy (1996)(Koei)(JP)(Track 13 of 90).bin" BINARY
  TRACK 13 AUDIO
    INDEX 00 00:00:00
    INDEX 01 00:02:00
FILE "Angelique - Voice Fantasy (1996)(Koei)(JP)(Track 14 of 90).bin" BINARY
  TRACK 14 AUDIO
    INDEX 00 00:00:00
    INDEX 01 00:02:00
FILE "Angelique - Voice Fantasy (1996)(Koei)(JP)(Track 15 of 90).bin" BINARY
  TRACK 15 AUDIO
    INDEX 00 00:00:00
    INDEX 01 00:02:00
FILE "Angelique - Voice Fantasy (1996)(Koei)(JP)(Track 16 of 90).bin" BINARY
  TRACK 16 AUDIO
    INDEX 00 00:00:00
    INDEX 01 00:02:00
FILE "Angelique - Voice Fantasy (1996)(Koei)(JP)(Track 17 of 90).bin" BINARY
  TRACK 17 AUDIO
    INDEX 00 00:00:00
    INDEX 01 00:02:00
FILE "Angelique - Voice Fantasy (1996)(Koei)(JP)(Track 18 of 90).bin" BINARY
  TRACK 18 AUDIO
    INDEX 00 00:00:00
    INDEX 01 00:02:00
FILE "Angelique - Voice Fantasy (1996)(Koei)(JP)(Track 19 of 90).bin" BINARY
  TRACK 19 AUDIO
    INDEX 00 00:00:00
    INDEX 01 00:02:00
FILE "Angelique - Voice Fantasy (1996)(Koei)(JP)(Track 20 of 90).bin" BINARY
  TRACK 20 AUDIO
    INDEX 00 00:00:00
    INDEX 01 00:02:00
FILE "Angelique - Voice Fantasy (1996)(Koei)(JP)(Track 21 of 90).bin" BINARY
  TRACK 21 AUDIO
    INDEX 00 00:00:00
    INDEX 01 00:02:00
FILE "Angelique - Voice Fantasy (1996)(Koei)(JP)(Track 22 of 90).bin" BINARY
  TRACK 22 AUDIO
    INDEX 00 00:00:00
    INDEX 01 00:02:00
FILE "Angelique - Voice Fantasy (1996)(Koei)(JP)(Track 23 of 90).bin" BINARY
  TRACK 23 AUDIO
    INDEX 00 00:00:00
    INDEX 01 00:02:00
FILE "Angelique - Voice Fantasy (1996)(Koei)(JP)(Track 24 of 90).bin" BINARY
  TRACK 24 AUDIO
    INDEX 00 00:00:00
    INDEX 01 00:02:00
FILE "Angelique - Voice Fantasy (1996)(Koei)(JP)(Track 25 of 90).bin" BINARY
  TRACK 25 AUDIO
    INDEX 00 00:00:00
    INDEX 01 00:02:00
FILE "Angelique - Voice Fantasy (1996)(Koei)(JP)(Track 26 of 90).bin" BINARY
  TRACK 26 AUDIO
    INDEX 00 00:00:00
    INDEX 01 00:02:00
FILE "Angelique - Voice Fantasy (1996)(Koei)(JP)(Track 27 of 90).bin" BINARY
  TRACK 27 AUDIO
    INDEX 00 00:00:00
    INDEX 01 00:02:00
FILE "Angelique - Voice Fantasy (1996)(Koei)(JP)(Track 28 of 90).bin" BINARY
  TRACK 28 AUDIO
    INDEX 00 00:00:00
    INDEX 01 00:02:00
FILE "Angelique - Voice Fantasy (1996)(Koei)(JP)(Track 29 of 90).bin" BINARY
  TRACK 29 AUDIO
    INDEX 00 00:00:00
    INDEX 01 00:02:00
FILE "Angelique - Voice Fantasy (1996)(Koei)(JP)(Track 30 of 90).bin" BINARY
  TRACK 30 AUDIO
    INDEX 00 00:00:00
    INDEX 01 00:02:00
FILE "Angelique - Voice Fantasy (1996)(Koei)(JP)(Track 31 of 90).bin" BINARY
  TRACK 31 AUDIO
    INDEX 00 00:00:00
    INDEX 01 00:02:00
FILE "Angelique - Voice Fantasy (1996)(Koei)(JP)(Track 32 of 90).bin" BINARY
  TRACK 32 AUDIO
    INDEX 00 00:00:00
    INDEX 01 00:02:00
FILE "Angelique - Voice Fantasy (1996)(Koei)(JP)(Track 33 of 90).bin" BINARY
  TRACK 33 AUDIO
    INDEX 00 00:00:00
    INDEX 01 00:02:00
FILE "Angelique - Voice Fantasy (1996)(Koei)(JP)(Track 34 of 90).bin" BINARY
  TRACK 34 AUDIO
    INDEX 00 00:00:00
    INDEX 01 00:02:00
FILE "Angelique - Voice Fantasy (1996)(Koei)(JP)(Track 35 of 90).bin" BINARY
  TRACK 35 AUDIO
    INDEX 00 00:00:00
    INDEX 01 00:02:00
FILE "Angelique - Voice Fantasy (1996)(Koei)(JP)(Track 36 of 90).bin" BINARY
  TRACK 36 AUDIO
    INDEX 00 00:00:00
    INDEX 01 00:02:00
FILE "Angelique - Voice Fantasy (1996)(Koei)(JP)(Track 37 of 90).bin" BINARY
  TRACK 37 AUDIO
    INDEX 00 00:00:00
    INDEX 01 00:02:00
FILE "Angelique - Voice Fantasy (1996)(Koei)(JP)(Track 38 of 90).bin" BINARY
  TRACK 38 AUDIO
    INDEX 00 00:00:00
    INDEX 01 00:02:00
FILE "Angelique - Voice Fantasy (1996)(Koei)(JP)(Track 39 of 90).bin" BINARY
  TRACK 39 AUDIO
    INDEX 00 00:00:00
    INDEX 01 00:02:00
FILE "Angelique - Voice Fantasy (1996)(Koei)(JP)(Track 40 of 90).bin" BINARY
  TRACK 40 AUDIO
    INDEX 00 00:00:00
    INDEX 01 00:02:00
FILE "Angelique - Voice Fantasy (1996)(Koei)(JP)(Track 41 of 90).bin" BINARY
  TRACK 41 AUDIO
    INDEX 00 00:00:00
    INDEX 01 00:02:00
FILE "Angelique - Voice Fantasy (1996)(Koei)(JP)(Track 42 of 90).bin" BINARY
  TRACK 42 AUDIO
    INDEX 00 00:00:00
    INDEX 01 00:02:00
FILE "Angelique - Voice Fantasy (1996)(Koei)(JP)(Track 43 of 90).bin" BINARY
  TRACK 43 AUDIO
    INDEX 00 00:00:00
    INDEX 01 00:02:00
FILE "Angelique - Voice Fantasy (1996)(Koei)(JP)(Track 44 of 90).bin" BINARY
  TRACK 44 AUDIO
    INDEX 00 00:00:00
    INDEX 01 00:02:00
FILE "Angelique - Voice Fantasy (1996)(Koei)(JP)(Track 45 of 90).bin" BINARY
  TRACK 45 AUDIO
    INDEX 00 00:00:00
    INDEX 01 00:02:00
FILE "Angelique - Voice Fantasy (1996)(Koei)(JP)(Track 46 of 90).bin" BINARY
  TRACK 46 AUDIO
    INDEX 00 00:00:00
    INDEX 01 00:02:00
FILE "Angelique - Voice Fantasy (1996)(Koei)(JP)(Track 47 of 90).bin" BINARY
  TRACK 47 AUDIO
    INDEX 00 00:00:00
    INDEX 01 00:02:00
FILE "Angelique - Voice Fantasy (1996)(Koei)(JP)(Track 48 of 90).bin" BINARY
  TRACK 48 AUDIO
    INDEX 00 00:00:00
    INDEX 01 00:02:00
FILE "Angelique - Voice Fantasy (1996)(Koei)(JP)(Track 49 of 90).bin" BINARY
  TRACK 49 AUDIO
    INDEX 00 00:00:00
    INDEX 01 00:02:00
FILE "Angelique - Voice Fantasy (1996)(Koei)(JP)(Track 50 of 90).bin" BINARY
  TRACK 50 AUDIO
    INDEX 00 00:00:00
    INDEX 01 00:02:00
FILE "Angelique - Voice Fantasy (1996)(Koei)(JP)(Track 51 of 90).bin" BINARY
  TRACK 51 AUDIO
    INDEX 00 00:00:00
    INDEX 01 00:02:00
FILE "Angelique - Voice Fantasy (1996)(Koei)(JP)(Track 52 of 90).bin" BINARY
  TRACK 52 AUDIO
    INDEX 00 00:00:00
    INDEX 01 00:02:00
FILE "Angelique - Voice Fantasy (1996)(Koei)(JP)(Track 53 of 90).bin" BINARY
  TRACK 53 AUDIO
    INDEX 00 00:00:00
    INDEX 01 00:02:00
FILE "Angelique - Voice Fantasy (1996)(Koei)(JP)(Track 54 of 90).bin" BINARY
  TRACK 54 AUDIO
    INDEX 00 00:00:00
    INDEX 01 00:02:00
FILE "Angelique - Voice Fantasy (1996)(Koei)(JP)(Track 55 of 90).bin" BINARY
  TRACK 55 AUDIO
    INDEX 00 00:00:00
    INDEX 01 00:02:00
FILE "Angelique - Voice Fantasy (1996)(Koei)(JP)(Track 56 of 90).bin" BINARY
  TRACK 56 AUDIO
    INDEX 00 00:00:00
    INDEX 01 00:02:00
FILE "Angelique - Voice Fantasy (1996)(Koei)(JP)(Track 57 of 90).bin" BINARY
  TRACK 57 AUDIO
    INDEX 00 00:00:00
    INDEX 01 00:02:00
FILE "Angelique - Voice Fantasy (1996)(Koei)(JP)(Track 58 of 90).bin" BINARY
  TRACK 58 AUDIO
    INDEX 00 00:00:00
    INDEX 01 00:02:00
FILE "Angelique - Voice Fantasy (1996)(Koei)(JP)(Track 59 of 90).bin" BINARY
  TRACK 59 AUDIO
    INDEX 00 00:00:00
    INDEX 01 00:02:00
FILE "Angelique - Voice Fantasy (1996)(Koei)(JP)(Track 60 of 90).bin" BINARY
  TRACK 60 AUDIO
    INDEX 00 00:00:00
    INDEX 01 00:02:00
FILE "Angelique - Voice Fantasy (1996)(Koei)(JP)(Track 61 of 90).bin" BINARY
  TRACK 61 AUDIO
    INDEX 00 00:00:00
    INDEX 01 00:02:00
FILE "Angelique - Voice Fantasy (1996)(Koei)(JP)(Track 62 of 90).bin" BINARY
  TRACK 62 AUDIO
    INDEX 00 00:00:00
    INDEX 01 00:02:00
FILE "Angelique - Voice Fantasy (1996)(Koei)(JP)(Track 63 of 90).bin" BINARY
  TRACK 63 AUDIO
    INDEX 00 00:00:00
    INDEX 01 00:02:00
FILE "Angelique - Voice Fantasy (1996)(Koei)(JP)(Track 64 of 90).bin" BINARY
  TRACK 64 AUDIO
    INDEX 00 00:00:00
    INDEX 01 00:02:00
FILE "Angelique - Voice Fantasy (1996)(Koei)(JP)(Track 65 of 90).bin" BINARY
  TRACK 65 AUDIO
    INDEX 00 00:00:00
    INDEX 01 00:02:00
FILE "Angelique - Voice Fantasy (1996)(Koei)(JP)(Track 66 of 90).bin" BINARY
  TRACK 66 AUDIO
    INDEX 00 00:00:00
    INDEX 01 00:02:00
FILE "Angelique - Voice Fantasy (1996)(Koei)(JP)(Track 67 of 90).bin" BINARY
  TRACK 67 AUDIO
    INDEX 00 00:00:00
    INDEX 01 00:02:00
FILE "Angelique - Voice Fantasy (1996)(Koei)(JP)(Track 68 of 90).bin" BINARY
  TRACK 68 AUDIO
    INDEX 00 00:00:00
    INDEX 01 00:02:00
FILE "Angelique - Voice Fantasy (1996)(Koei)(JP)(Track 69 of 90).bin" BINARY
  TRACK 69 AUDIO
    INDEX 00 00:00:00
    INDEX 01 00:02:00
FILE "Angelique - Voice Fantasy (1996)(Koei)(JP)(Track 70 of 90).bin" BINARY
  TRACK 70 AUDIO
    INDEX 00 00:00:00
    INDEX 01 00:02:00
FILE "Angelique - Voice Fantasy (1996)(Koei)(JP)(Track 71 of 90).bin" BINARY
  TRACK 71 AUDIO
    INDEX 00 00:00:00
    INDEX 01 00:02:00
FILE "Angelique - Voice Fantasy (1996)(Koei)(JP)(Track 72 of 90).bin" BINARY
  TRACK 72 AUDIO
    INDEX 00 00:00:00
    INDEX 01 00:02:00
FILE "Angelique - Voice Fantasy (1996)(Koei)(JP)(Track 73 of 90).bin" BINARY
  TRACK 73 AUDIO
    INDEX 00 00:00:00
    INDEX 01 00:02:00
FILE "Angelique - Voice Fantasy (1996)(Koei)(JP)(Track 74 of 90).bin" BINARY
  TRACK 74 AUDIO
    INDEX 00 00:00:00
    INDEX 01 00:02:00
FILE "Angelique - Voice Fantasy (1996)(Koei)(JP)(Track 75 of 90).bin" BINARY
  TRACK 75 AUDIO
    INDEX 00 00:00:00
    INDEX 01 00:02:00
FILE "Angelique - Voice Fantasy (1996)(Koei)(JP)(Track 76 of 90).bin" BINARY
  TRACK 76 AUDIO
    INDEX 00 00:00:00
    INDEX 01 00:02:00
FILE "Angelique - Voice Fantasy (1996)(Koei)(JP)(Track 77 of 90).bin" BINARY
  TRACK 77 AUDIO
    INDEX 00 00:00:00
    INDEX 01 00:02:00
FILE "Angelique - Voice Fantasy (1996)(Koei)(JP)(Track 78 of 90).bin" BINARY
  TRACK 78 AUDIO
    INDEX 00 00:00:00
    INDEX 01 00:02:00
FILE "Angelique - Voice Fantasy (1996)(Koei)(JP)(Track 79 of 90).bin" BINARY
  TRACK 79 AUDIO
    INDEX 00 00:00:00
    INDEX 01 00:02:00
FILE "Angelique - Voice Fantasy (1996)(Koei)(JP)(Track 80 of 90).bin" BINARY
  TRACK 80 AUDIO
    INDEX 00 00:00:00
    INDEX 01 00:02:00
FILE "Angelique - Voice Fantasy (1996)(Koei)(JP)(Track 81 of 90).bin" BINARY
  TRACK 81 AUDIO
    INDEX 00 00:00:00
    INDEX 01 00:02:00
FILE "Angelique - Voice Fantasy (1996)(Koei)(JP)(Track 82 of 90).bin" BINARY
  TRACK 82 AUDIO
    INDEX 00 00:00:00
    INDEX 01 00:02:00
FILE "Angelique - Voice Fantasy (1996)(Koei)(JP)(Track 83 of 90).bin" BINARY
  TRACK 83 AUDIO
    INDEX 00 00:00:00
    INDEX 01 00:02:00
FILE "Angelique - Voice Fantasy (1996)(Koei)(JP)(Track 84 of 90).bin" BINARY
  TRACK 84 AUDIO
    INDEX 00 00:00:00
    INDEX 01 00:02:00
FILE "Angelique - Voice Fantasy (1996)(Koei)(JP)(Track 85 of 90).bin" BINARY
  TRACK 85 AUDIO
    INDEX 00 00:00:00
    INDEX 01 00:02:00
FILE "Angelique - Voice Fantasy (1996)(Koei)(JP)(Track 86 of 90).bin" BINARY
  TRACK 86 AUDIO
    INDEX 00 00:00:00
    INDEX 01 00:02:00
FILE "Angelique - Voice Fantasy (1996)(Koei)(JP)(Track 87 of 90).bin" BINARY
  TRACK 87 AUDIO
    INDEX 00 00:00:00
    INDEX 01 00:02:00
FILE "Angelique - Voice Fantasy (1996)(Koei)(JP)(Track 88 of 90).bin" BINARY
  TRACK 88 AUDIO
    INDEX 00 00:00:00
    INDEX 01 00:02:00
FILE "Angelique - Voice Fantasy (1996)(Koei)(JP)(Track 89 of 90).bin" BINARY
  TRACK 89 AUDIO
    INDEX 00 00:00:00
    INDEX 01 00:02:00
FILE "Angelique - Voice Fantasy (1996)(Koei)(JP)(Track 90 of 90).bin" BINARY
  TRACK 90 AUDIO
    INDEX 00 00:00:00
    INDEX 01 00:02:00
